<svg xmlns="http://www.w3.org/2000/svg" width="46" height="30">
    <defs>
        <filter id="2f2lnay06a">
            <feFlood flood-color="#FFF" flood-opacity="1" result="floodOut"/>
            <feComposite in="floodOut" in2="SourceGraphic" operator="atop" result="compOut"/>
            <feBlend in="compOut" in2="SourceGraphic"/>
        </filter>
    </defs>
    <g filter="url(#2f2lnay06a)">
        <path fill-rule="evenodd" d="M38.937 29.4H7.062C3.444 29.4.5 26.385.5 22.68V7.32C.5 3.614 3.444.6 7.062.6h31.875C42.556.6 45.5 3.614 45.5 7.32v15.36c0 3.705-2.944 6.72-6.563 6.72zm4.688-22.08c0-2.646-2.102-4.8-4.688-4.8H7.062c-2.585 0-4.687 2.154-4.687 4.8v15.36c0 2.645 2.102 4.8 4.687 4.8h31.875c2.586 0 4.688-2.155 4.688-4.8V7.32zm-2.151 12.198c-.182.188-.421.282-.662.282-.24 0-.48-.094-.663-.28l-3.087-3.163-3.086 3.161c-.176.18-.414.282-.664.282h-5.625c-.517 0-.937-.43-.937-.96v-7.68c0-.53.42-.96.937-.96h5.625c.25 0 .488.101.664.28l3.086 3.16 3.087-3.16c.365-.374.96-.374 1.325 0 .366.374.366.983 0 1.357L38.388 15l3.086 3.16c.366.374.366.983 0 1.358zm-8.55-7.398h-4.299v1.92H30.5c.517 0 .937.43.937.96s-.42.96-.937.96h-1.875v1.92h4.299L35.737 15l-2.813-2.88zm-8.987 7.68c-.517 0-.937-.43-.937-.96v-4.334l-2.955 4.843c-.341.56-1.249.56-1.59 0L15.5 14.506v4.334c0 .53-.42.96-.938.96h-1.875c-.429 0-.806-.3-.909-.728l-.291-1.192H7.062c-.114 0-.222-.028-.323-.067l-.712 1.457c-.166.336-.496.53-.84.53-.14 0-.283-.033-.42-.102-.463-.238-.65-.814-.42-1.288l3.75-7.68c.162-.325.486-.53.84-.53h1.875c.43 0 .807.299.91.727l1.699 6.953h.204v-6.72c0-.428.276-.805.679-.922.403-.119.83.05 1.053.413l3.893 6.378 3.893-6.378c.219-.363.648-.532 1.053-.413.403.117.679.494.679.922v7.68c0 .53-.42.96-.938.96zm-13.858-7.68h-.562l-1.874 3.84h3.375l-.939-3.84z"/>
    </g>
</svg>
