<svg xmlns="http://www.w3.org/2000/svg" width="54" height="26">
    <defs>
        <filter id="cab7ho56pa">
            <feFlood flood-color="#FFF" flood-opacity="1" result="floodOut"/>
            <feComposite in="floodOut" in2="SourceGraphic" operator="atop" result="compOut"/>
            <feBlend in="compOut" in2="SourceGraphic"/>
        </filter>
    </defs>
    <g filter="url(#cab7ho56pa)">
        <path fill-rule="evenodd" d="M14.535 25.141c25.178-4.279 38.924-13.836 38.924-13.836v13.836H14.535zM46.258 2.026c-.313 0-.564-.246-.564-.554 0-.307.249-.553.564-.553.302 0 .554.25.554.553 0 .305-.252.554-.554.554zm-.006-1.007c-.244 0-.445.203-.445.454s.203.454.445.454c.247 0 .446-.205.446-.454 0-.249-.202-.454-.446-.454zm.099.772l-.181-.247v.247h-.153v-.635h.207c.157 0 .245.068.245.196 0 .089-.049.154-.14.178l.21.261h-.188zm-.153-.519h-.027v.165h.025c.076 0 .117-.026.117-.083 0-.055-.039-.082-.115-.082zm-2.247 3.973l2.309 3.044h-1.762L42.52 5.386h-.186v2.903h-1.429V1.063h2.121c1.649 0 2.596.781 2.596 2.134 0 1.107-.595 1.832-1.671 2.048zm-1.176-3.043h-.44l-.001 2.187h.416c.914 0 1.4-.39 1.4-1.117 0-.703-.484-1.07-1.375-1.07zm-6.876-1.141h4.055v1.226h-2.626V3.89h2.531v1.223h-2.531v1.951h2.626v1.223h-4.055V1.061zm-4.582 7.41l-3.113-7.408h1.563l1.955 4.853 1.982-4.853h1.548l-3.168 7.408h-.767zm-2.745-2.997c-.011.055-.028.111-.041.167-.02.066-.033.134-.056.2-.49 1.565-1.975 2.701-3.725 2.701-2.153 0-3.899-1.721-3.899-3.843 0-.53.107-1.036.306-1.496.59-1.379 1.979-2.347 3.593-2.347 2.156 0 3.902 1.72 3.902 3.841 0 .267-.026.527-.08.777zm-9.981-3.287c-1.341 0-2.395 1.096-2.395 2.481 0 1.463 1.021 2.492 2.461 2.492.648 0 1.154-.228 1.726-.792v1.659c-.649.303-1.176.421-1.793.421-2.178 0-3.87-1.646-3.868-3.768 0-2.101 1.737-3.781 3.903-3.781.615 0 1.132.129 1.759.444V3c-.592-.573-1.11-.813-1.793-.813zm-6.429 1.646c1.625.586 2.108 1.107 2.109 2.255 0 1.398-1.043 2.373-2.53 2.373-1.087 0-1.878-.423-2.538-1.377l.925-.877c.328.627.88.964 1.561.964.638 0 1.11-.435 1.11-1.02 0-.303-.142-.564-.429-.748-.144-.087-.428-.216-.989-.411-1.343-.476-1.802-.986-1.802-1.981 0-1.182.986-2.069 2.284-2.069.804 0 1.539.27 2.156.8l-.749.967c-.373-.413-.726-.586-1.153-.586-.617 0-1.067.345-1.067.801 0 .389.252.597 1.112.909zM7.24 1.061h1.429v7.226H7.24V1.061zM2.63 8.289H.541V1.063h2.097c2.32-.002 3.937 1.484 3.937 3.618 0 1.063-.494 2.091-1.33 2.772-.706.575-1.507.836-2.615.836zM4.309 2.87c-.473-.421-1.033-.585-1.955-.585H1.97v4.779h.384c.923 0 1.507-.176 1.955-.575.496-.433.793-1.125.793-1.821 0-.693-.298-1.365-.793-1.798z"/>
    </g>
</svg>
