<svg xmlns="http://www.w3.org/2000/svg" width="34" height="26">
    <defs>
        <filter id="s78bn9an9a">
            <feFlood flood-color="#FFF" flood-opacity="1" result="floodOut"/>
            <feComposite in="floodOut" in2="SourceGraphic" operator="atop" result="compOut"/>
            <feBlend in="compOut" in2="SourceGraphic"/>
        </filter>
    </defs>
    <g filter="url(#s78bn9an9a)">
        <path fill-rule="evenodd" d="M25.636 13.521H28.06c.013.002.025.002.041.002.013.002.027.002.041.005.015 0 .027.002.041.004l.041.002.041.007.041.006c.007 0 .015.002.023.004l.018.004.041.01c.015.004.027.01.041.012l.041.017c.015.004.026.011.041.017l.04.019c.017.006.027.014.043.02.015.004.025.013.041.022.015.005.027.013.041.022.015.006.027.018.041.027.015.009.027.019.041.029.015.01.027.022.041.032.015.014.027.023.041.037.017.012.029.026.043.04.015.014.027.03.041.046.017.016.027.034.041.05.014.018.027.037.041.058.017.021.027.043.04.065.017.025.027.054.041.079.016.033.029.066.041.098.019.048.029.094.041.143.019.081.029.172.029.266 0 .093-.008.183-.029.266-.012.051-.022.097-.041.143-.012.036-.025.068-.041.101-.014.026-.024.052-.041.078-.013.02-.023.042-.04.064l-.041.059-.041.052-.041.044-.043.041-.041.036-.041.031c-.014.009-.026.021-.041.029-.014.008-.026.018-.041.026-.014.007-.028.016-.041.024-.016.007-.026.013-.041.021l-.043.021-.04.018c-.015.008-.026.012-.041.018-.014.004-.026.011-.041.015l-.041.012c-.016.005-.026.009-.041.011l-.018.004-.023.006-.041.006-.041.006-.041.004-.041.002-.041.004c-.016 0-.028.003-.041.003H25.576v-2.288h.06zm-.061-3.389H27.861l.041.002.041.003.041.004.04.004.03.004.011.002c.014.002.028.005.04.009.015.002.027.006.041.011.015.002.027.007.043.011.015.004.027.009.041.014l.041.015c.015.005.027.012.041.018.015.006.027.013.041.021.015.006.027.014.041.021l.041.024c.015.009.027.018.041.028.015.009.028.02.04.031.017.01.029.021.043.033.015.012.027.025.041.038.015.013.027.026.041.041l.041.047.041.054c.015.021.027.042.041.063.015.025.029.05.041.075.017.032.027.064.041.097.019.045.031.093.041.142.019.076.025.157.025.243 0 .084-.01.166-.025.243-.01.049-.022.096-.041.142-.012.033-.024.065-.041.096-.012.025-.026.051-.041.075-.014.022-.026.043-.041.063-.014.019-.026.037-.041.054-.014.017-.026.033-.041.047l-.041.042-.041.037c-.014.012-.026.023-.043.034-.012.01-.025.021-.04.03-.014.01-.026.019-.041.027-.014.008-.026.017-.041.024-.014.007-.026.015-.041.021-.014.007-.026.015-.041.021l-.041.017-.041.016c-.014.005-.026.01-.041.014l-.043.012-.041.01-.04.008-.011.002-.03.004c-.013.002-.025.004-.04.004-.015.003-.027.005-.041.005l-.041.004-.041.002H25.597v-.003H25.575v-2.106zm8.409 11.903c-.01.111-.023.222-.041.329-.014.072-.025.147-.043.217-.012.059-.025.115-.041.173-.012.051-.025.101-.041.148-.012.045-.025.091-.041.133-.012.039-.025.078-.04.118-.015.036-.026.07-.04.106-.016.036-.028.07-.042.102-.015.032-.026.063-.041.095l-.041.087-.041.084c-.014.026-.027.054-.041.078-.016.024-.027.051-.041.075-.016.023-.027.048-.041.071l-.041.069-.041.065c-.016.021-.027.041-.041.063-.016.022-.027.042-.041.062-.016.02-.027.04-.041.06-.016.021-.029.037-.043.058l-.04.057-.041.054-.041.053-.041.05-.041.048-.041.049c-.016.015-.028.028-.041.046-.016.014-.028.027-.043.044l-.041.042-.041.043-.041.04-.041.039-.041.04c-.015.014-.025.026-.04.038-.014.014-.026.024-.041.037l-.041.036c-.015.012-.028.022-.041.035l-.041.033c-.014.012-.028.02-.043.033-.014.01-.026.021-.041.031l-.041.034c-.014.008-.026.019-.041.029-.014.009-.028.02-.041.03-.016.008-.028.018-.043.028-.014.008-.026.02-.041.028-.013.008-.025.018-.04.026l-.041.028c-.014.007-.026.017-.041.025-.014.007-.026.017-.041.026-.014.005-.026.016-.041.024l-.041.022c-.014.008-.028.017-.043.024l-.041.023c-.014.004-.026.013-.041.022-.014.006-.026.012-.041.021-.014.005-.026.014-.04.022-.015.006-.027.012-.041.021-.015.005-.027.013-.04.021l-.041.018-.043.022-.041.02-.041.019-.041.02c-.015.006-.027.013-.041.017l-.041.019c-.015.006-.027.013-.041.017l-.041.018-.041.014-.041.017c-.017.004-.029.011-.043.016-.015.004-.026.008-.041.014l-.04.014-.041.012-.041.012c-.017.007-.028.009-.043.014l-.041.012c-.015.005-.026.009-.041.011l-.041.013-.041.01-.041.01c-.015.004-.026.008-.041.01l-.041.01-.042.009-.041.008c-.015.005-.026.007-.041.009l-.041.007-.041.006-.041.006-.041.008c-.015 0-.028.002-.041.004-.017.002-.028.004-.043.004l-.041.006-.041.002c-.012.004-.026.004-.041.006l-.041.004-.04.002-.041.002c-.014.003-.028.003-.041.003-.014.002-.028.002-.043.002h-.041l-.041.002H23.499v-8.82H30.183c.015-.002.027-.002.041-.002.017 0 .029 0 .043-.002l.057-.006.041-.002.041-.002.041-.004.041.001c.016 0 .027-.002.041-.004.016 0 .026-.002.04-.004l.043-.004.041-.008.041-.006.041-.006.041-.008.041-.006.041-.008c.016-.002.027-.008.041-.01l.043-.009.041-.01c.014-.005.027-.007.041-.011l.041-.01.04-.013c.016-.002.027-.008.043-.012l.041-.013.041-.006.041-.014.041-.015c.014-.004.027-.012.041-.016l.041-.016.041-.018.041-.018c.014-.008.027-.014.041-.02l.043-.019c.014-.006.025-.014.04-.02.014-.006.025-.014.041-.022.014-.006.027-.015.041-.021.014-.006.025-.015.041-.023.014-.004.027-.013.039-.021.016-.007.029-.015.043-.023.014-.006.027-.016.041-.026.016-.005.027-.015.041-.024.016-.006.029-.016.041-.026.016-.008.029-.018.043-.028.014-.01.027-.019.041-.032.014-.01.027-.019.041-.031.014-.012.027-.02.041-.034l.04-.032.041-.038c.016-.013.027-.024.041-.038l.041-.041c.016-.015.029-.027.043-.044.014-.015.027-.028.041-.046l.041-.048c.016-.019.027-.035.041-.054l.041-.058c.016-.021.028-.04.041-.06.016-.022.028-.046.041-.068.016-.023.028-.047.041-.073.015-.026.029-.054.043-.081.015-.033.025-.064.04-.096.016-.036.028-.073.041-.111.016-.047.028-.095.041-.143.018-.071.03-.144.041-.219.012-.087.018-.181.018-.278 0-.091-.006-.183-.018-.27-.011-.071-.023-.144-.041-.211-.013-.047-.025-.093-.041-.137-.013-.038-.025-.073-.041-.107-.015-.031-.027-.062-.04-.094-.015-.025-.028-.054-.043-.079-.013-.022-.025-.048-.041-.069-.013-.019-.025-.043-.041-.064-.013-.021-.025-.039-.041-.058-.014-.019-.025-.038-.041-.057l-.041-.05c-.014-.016-.025-.031-.041-.048l-.041-.045-.043-.042c-.014-.012-.027-.026-.041-.04l-.041-.036c-.014-.014-.027-.025-.041-.035-.014-.014-.026-.022-.04-.036-.014-.009-.027-.02-.041-.03-.014-.01-.027-.022-.041-.031l-.041-.029c-.014-.007-.027-.018-.043-.028-.014-.007-.025-.017-.041-.025-.014-.008-.027-.019-.041-.025l-.041-.025c-.016-.007-.027-.014-.043-.022l-.039-.023c-.016-.007-.027-.015-.041-.021l-.041-.021c-.016-.008-.027-.015-.041-.021l-.04-.02-.043-.018-.041-.019-.041-.017-.041-.018-.041-.014c-.014-.004-.027-.011-.041-.016-.014-.004-.027-.008-.041-.014-.016-.004-.029-.009-.041-.013l-.041-.013-.041-.013c-.016-.006-.029-.008-.043-.013l-.04-.011c-.014-.004-.027-.008-.041-.01L30.983 13l-.041-.01-.043-.009-.041-.008-.041-.009-.041-.006c-.014-.004-.025-.006-.041-.008l-.041-.007-.041-.007-.041-.005-.043-.006-.04-.004-.041-.004-.041-.004-.041-.002-.039-.004v-.05l.038-.006.041-.007.041-.007.041-.008.041-.01.042-.011.041-.009c.015-.004.026-.008.041-.01l.041-.012.041-.012.041-.013c.015-.006.026-.01.041-.014.015-.004.026-.01.041-.014l.043-.014.041-.017c.015-.004.026-.011.041-.016l.04-.018.041-.019c.017-.006.028-.012.043-.018l.041-.021.041-.021.041-.022c.014-.006.026-.013.041-.021.014-.007.026-.016.041-.024l.041-.023c.014-.009.028-.017.041-.027.014-.008.026-.018.041-.026.014-.009.028-.018.041-.03.016-.009.028-.019.043-.029l.041-.033c.013-.011.025-.022.04-.032l.04-.038c.015-.012.027-.024.041-.037l.041-.041c.015-.014.027-.029.041-.043.015-.015.029-.03.041-.046.017-.015.029-.031.043-.048.015-.017.027-.034.041-.051l.041-.056c.015-.02.029-.04.041-.061l.041-.067c.015-.024.029-.048.041-.073.015-.027.028-.055.04-.083.017-.032.029-.064.041-.096.017-.037.029-.075.043-.114.017-.048.029-.098.041-.148.02-.08.033-.163.041-.247.006-.068.011-.135.011-.202 0-.072-.005-.142-.011-.209-.008-.087-.022-.171-.041-.253-.012-.051-.026-.1-.041-.148-.014-.039-.026-.076-.043-.114-.012-.033-.024-.064-.041-.095-.012-.027-.025-.055-.04-.081-.012-.024-.026-.048-.041-.071-.014-.022-.026-.043-.041-.064-.012-.021-.026-.039-.041-.06l-.041-.053c-.014-.017-.026-.034-.041-.05l-.043-.047-.041-.044c-.014-.014-.026-.027-.041-.04-.014-.013-.026-.027-.041-.039-.014-.013-.026-.026-.041-.036-.014-.013-.026-.025-.04-.035l-.04-.034-.041-.03c-.017-.01-.029-.021-.043-.03l-.041-.027-.041-.027-.041-.025-.041-.025c-.015-.006-.027-.015-.041-.022l-.041-.021-.041-.022c-.015-.006-.027-.014-.041-.02l-.041-.019c-.017-.006-.029-.012-.043-.018-.012-.007-.026-.012-.041-.018l-.04-.017-.041-.016c-.015-.004-.028-.011-.041-.015l-.043-.014-.041-.014-.041-.013-.041-.012-.041-.013-.041-.01-.041-.011-.041-.01c-.015-.002-.028-.006-.042-.01l-.041-.008-.041-.008-.041-.008-.041-.007-.041-.007-.041-.005-.041-.005-.043-.006-.041-.004-.041-.005-.041-.005-.041-.003-.04-.003-.041-.003-.041-.002-.016-.001-.025-.002-.041-.002-.043-.002-.041-.002-.041-.002-.04-.002-.042-.001-.041-.001-.04-.001H23.478V4.342c0-.301.029-.596.088-.881.013-.061.025-.123.041-.183.015-.05.027-.102.041-.152.015-.045.027-.091.043-.134.013-.041.025-.082.041-.122.013-.037.025-.074.041-.111.013-.035.025-.069.041-.103.015-.032.025-.064.041-.096.013-.03.024-.059.04-.089.015-.028.025-.056.041-.085.015-.026.027-.052.042-.079l.042-.076.041-.073c.015-.023.027-.046.043-.07.013-.022.025-.045.041-.067.013-.021.025-.042.041-.064.015-.02.027-.042.041-.062.015-.02.027-.041.041-.06l.041-.058.041-.055.041-.055.04-.052.041-.05.041-.049c.014-.017.027-.032.043-.047.012-.016.025-.032.041-.047l.041-.045c.014-.014.025-.028.041-.043.014-.015.025-.029.041-.043l.041-.041.041-.04c.014-.014.027-.026.043-.039l.039-.039c.015-.012.026-.024.04-.036l.043-.037.041-.037c.013-.013.027-.023.041-.034.014-.011.027-.024.041-.033l.041-.032.041-.033.041-.031.041-.03.041-.029c.014-.011.027-.021.041-.03l.041-.028.041-.027.043-.027.041-.027.041-.025.041-.025.041-.024c.015-.007.026-.016.041-.023.015-.008.026-.016.041-.023l.041-.022c.017-.007.028-.014.043-.022l.041-.021.041-.021.041-.021c.015-.007.026-.014.041-.02.014-.006.025-.013.04-.019l.041-.019.041-.018c.015-.006.026-.012.041-.017l.041-.018.043-.016.041-.016.041-.015c.014-.004.026-.01.041-.015l.041-.015.041-.014.042-.014.041-.012.041-.013.041-.012.041-.012.043-.011.041-.012.041-.01.041-.01c.014-.002.026-.006.041-.009l.041-.009.041-.008.041-.008c.014-.002.025-.006.039-.009l.041-.006.041-.007.043-.006.041-.006.041-.005.041-.005.041-.004.043-.004.041-.004.041-.007.041-.002.04-.003.043-.002.041-.001.041-.001.041-.002H33.912V.013h.09v21.638c0 .129-.006.257-.018.384zm-11.792.424c-.014.064-.025.13-.043.193-.012.054-.025.107-.041.161-.012.048-.025.093-.041.139-.012.042-.025.084-.041.125-.014.038-.025.076-.041.114-.014.037-.025.07-.041.105l-.041.099c-.014.029-.026.061-.04.089-.014.029-.027.059-.041.086-.014.026-.027.057-.041.081-.014.027-.027.053-.043.078-.012.024-.025.049-.041.074l-.039.069-.041.067c-.016.021-.029.042-.041.063-.016.022-.027.042-.041.063-.016.021-.029.041-.043.062l-.041.058-.041.057-.041.055-.04.052-.041.054c-.014.016-.027.031-.041.05l-.041.047c-.014.017-.027.032-.041.046-.014.017-.025.03-.041.046l-.041.044-.041.042c-.014.016-.027.027-.041.041l-.041.042-.043.04c-.014.014-.025.025-.041.037-.014.015-.025.024-.04.038l-.041.038-.041.033c-.014.015-.027.023-.041.036l-.041.033-.041.033c-.016.01-.027.02-.041.03-.016.011-.027.022-.043.032-.014.009-.025.019-.041.029-.014.01-.025.02-.041.03-.014.008-.027.019-.041.027-.016.01-.027.023-.041.03-.014.007-.027.017-.041.026-.015.006-.026.016-.042.027-.014.007-.025.017-.041.025-.014.007-.025.016-.041.026l-.041.023c-.014.005-.025.015-.041.024-.014.005-.025.014-.041.023l-.041.021-.041.022-.041.021c-.014.006-.027.015-.041.021-.014.008-.027.016-.041.022-.014.007-.027.015-.041.021-.014.006-.027.013-.041.021-.014.008-.027.014-.041.02-.013.008-.026.014-.04.02l-.041.02-.041.017-.041.019-.041.017-.041.017-.043.018-.041.014-.041.015-.041.018c-.014.004-.027.008-.041.014l-.041.012c-.013.006-.026.01-.04.014l-.041.012-.041.014c-.016.004-.028.006-.041.011l-.043.012-.041.01c-.014.005-.026.009-.041.011l-.041.01-.041.01c-.016.004-.027.008-.042.01l-.041.009-.041.008-.041.007c-.015.005-.025.007-.04.009l-.041.006-.042.006-.041.006-.041.006-.041.004-.042.006-.041.004-.042.004-.041.004c-.014 0-.027 0-.041.002l-.041.002-.04.002-.041.002h-.041c-.014.003-.027.003-.041.003H11.75v-9.99c.028.024.058.051.088.075.013.012.027.021.041.033l.041.031c.014.011.027.023.041.032.014.009.027.02.041.03.013.008.027.019.04.029.014.008.028.018.041.029l.041.027c.015.006.028.018.042.026l.041.028c.014.007.028.015.042.025.014.006.027.017.041.026l.041.024c.014.004.027.015.041.023l.041.023.041.018.041.021.041.023c.014.005.027.013.04.021.014.006.027.014.041.022l.041.02.042.021.041.021.042.02.041.021.041.02.041.02.041.018.041.019.041.019.04.02.041.016.042.018.041.017c.014.004.027.011.041.018l.041.014c.014.006.027.012.041.016l.041.016.042.015.029.021.041.015c.014.004.028.009.041.015l.041.012.041.01.041.014.041.012.041.012.041.013.041.013.042.01.041.013.041.011.041.011.042.01.041.012.04.01.041.009.041.011.042.004.041.01.041.01.041.008.041.008.041.008.042.008.041.009.041.007.041.006.042.008.04.007.042.009.041.006.041.008.041.006.041.006.041.008.041.002.041.006.041.006.041.007.041.004.04.007.041.004.042.007.041.004.041.004.041.004.041.006.041.004.041.004.041.002.041.004.041.004.041.002.041.004.041.002.041.004.041.003.042.004.041.002.041.002.041.002.038-.006.041.002.041.002.041.002h.04l.042.002.041.003.041.002h.041l.041.002h.041l.042.002h.082l.041.002H17.02l.041-.002h.164l.041-.002h.042l.041-.002h.041l.042-.002h.041l.042-.003.041-.002.041-.002h.041l.041-.002h.04l.041-.002.041-.002.043-.002.041-.003.041-.004.041-.002.041-.004.041-.002.041-.004.041.002.041-.004.04-.004.041-.002.04-.002.041-.004.041-.004.041-.004.043-.004.041-.004.04-.005.041-.004.042-.004.041-.007.041-.005.041-.004.04-.006.041-.004.042-.006.041-.006.041-.004.042-.006.041-.006.041-.006.041-.006.041-.017.041-.007.041-.006.042-.006.041-.007.041-.009.041-.006.041-.006.041-.008.041-.003.041-.006.041-.009.041-.006.043-.008.041-.008.04-.008.041-.006.041-.008.041-.008.041-.006.041-.009.041-.008.041-.01.041-.008.041-.008.041-.006.041-.008.041-.008.041-.01.04-.008.043-.01.041-.008.041-.011.041-.008.041-.008.041-.011.055-.033.041-.009.041-.01.041-.01.04-.01.041-.01.041-.01.043-.01.041-.01.041-.011.041-.011v-1.83l-.041.022-.041.021-.041.021-.043.021-.041.02-.041.021-.04.021-.041.02-.041.02-.041.02-.041.021-.041.02-.043.02-.041.019-.041.018-.041.021-.041.016-.041.019-.042.02-.041.016-.041.018-.041.017-.041.017-.041.017-.041.016-.041.016-.041.017-.041.015-.041.015-.041.017-.041.014-.04.014-.041.014-.041.016-.041.013-.041.014-.041.014-.041.012-.043.013-.041.013-.041.013-.041.013-.041.012-.04.01-.041.012-.041.012-.041.012-.041.01-.043.011-.041.008-.041.01-.041.01-.041.008-.041.011-.041.008-.041.011-.04.008-.041.009-.041.006-.043.009-.041.008-.041.006-.041.006-.041.006-.041.008-.043.008-.041.006-.041.006-.041.006-.04.006-.041.004-.041.005-.041.006-.041.004-.041.004-.041.004-.04.005-.041.002-.025.002-.016.002-.041.002-.042.002-.04.002-.041.002-.041.004-.041.002h-.041l-.041.002H17.239l-.042-.002h-.04c-.014-.002-.027-.002-.041-.002l-.041-.004-.041-.002-.041-.004-.041-.002-.041-.004c-.014 0-.027-.002-.041-.004l-.041-.005-.041-.004-.041-.004-.041-.008-.04-.007-.041-.006-.042-.006-.041-.008c-.014-.002-.027-.004-.041-.008-.014-.002-.028-.004-.041-.008-.015-.002-.028-.004-.042-.009-.014-.002-.027-.004-.041-.008-.014-.004-.027-.006-.041-.011l-.041-.011c-.014-.002-.027-.008-.041-.01-.014-.004-.028-.008-.041-.01l-.041-.012-.041-.012-.041-.014c-.014-.004-.027-.008-.041-.014l-.041-.013c-.014-.006-.027-.012-.041-.016-.014-.005-.027-.011-.041-.015-.014-.006-.027-.012-.041-.016-.014-.006-.028-.013-.041-.017-.015-.006-.028-.013-.042-.017-.014-.006-.027-.013-.041-.021l-.041-.018c-.014-.006-.028-.014-.041-.021-.014-.006-.026-.012-.04-.021-.015-.006-.028-.012-.042-.02-.014-.004-.027-.012-.041-.021l-.041-.021c-.014-.006-.028-.014-.041-.023-.014-.005-.027-.017-.041-.023-.014-.006-.027-.018-.041-.024-.014-.007-.027-.02-.041-.026-.014-.006-.028-.015-.041-.025-.014-.008-.027-.018-.041-.027-.014-.008-.028-.018-.041-.029-.015-.009-.028-.02-.042-.03-.014-.011-.028-.02-.041-.032l-.04-.031c-.014-.015-.028-.022-.041-.036l-.041-.036-.041-.037-.041-.04c-.014-.016-.028-.028-.041-.042l-.041-.046c-.014-.014-.027-.027-.041-.045l-.041-.048-.041-.052-.041-.054-.042-.059-.041-.061c-.014-.019-.027-.043-.041-.063l-.041-.071-.041-.073-.041-.082c-.015-.029-.029-.062-.042-.089l-.041-.1c-.015-.036-.028-.073-.041-.111-.014-.042-.028-.083-.041-.127-.015-.049-.029-.099-.041-.152-.016-.064-.029-.132-.041-.197-.019-.1-.032-.2-.042-.306-.011-.119-.017-.246-.017-.374 0-.129.006-.254.017-.375.01-.106.024-.206.042-.306.012-.067.025-.132.041-.197.012-.052.027-.103.041-.153l.041-.127c.013-.038.026-.075.041-.112.013-.034.027-.065.041-.098.014-.03.027-.061.042-.089.013-.029.027-.055.041-.083l.041-.075c.014-.024.027-.049.041-.07l.041-.064.041-.062.042-.057.041-.054.041-.051.041-.049.041-.046.041-.044.041-.041.041-.041.041-.037c.014-.014.027-.025.041-.037l.041-.035.04-.033.041-.033.042-.03.041-.03.041-.028.041-.027.041-.026.041-.026.041-.023.041-.023.041-.022.041-.021.042-.02c.014-.008.026-.015.04-.021l.041-.019.041-.018.041-.019.042-.016.041-.016c.014-.006.027-.011.041-.015l.041-.017.041-.014.041-.013c.014-.005.027-.008.041-.014l.041-.012.041-.012.041-.012.041-.01.041-.01.041-.011.041-.01.041-.008.042-.008c.013-.004.027-.005.041-.008l.041-.008.041-.006c.015-.004.028-.006.042-.008l.041-.006.04-.007.041-.006.041-.004.041-.005.041-.004.041-.004.041-.003.041-.003.041-.003.041-.003.041-.002c.014 0 .027 0 .041-.002h.04l.042-.002H17.487l.041.002h.041l.041.002.041.002.041.002.04.002.042.002.041.003h.016l.025.002.041.003.04.004.041.003.041.004.061-.01.041.005.041.004.041.005.04.004.041.006.041.005.041.006.042.006.041.007.042.006.041.006.041.008.041.007.042.007.041.008.041.008.04.008.041.008.041.008.042.008.041.009.041.009.041.01.041.01.043.01.041.01.041.01.041.01.04.012.041.011.041.011.041.012.041.012.041.012.043.013.041.013.04.013.041.013.04.014.043.013.041.014.04.013.041.015.041.015.041.014.041.015.041.016.041.015.041.016.041.017.041.016.041.017.04.017.041.018.043.017.041.017.041.019.041.018.041.018.041.018.043.019.041.019.041.02.041.019.041.019.041.02.04.02.041.021.041.021.043.02.041.021.041.02.041.022V9.129l-.041-.01-.041-.011-.041-.009-.043-.01-.041-.01-.041-.009-.04-.009-.041-.009-.041-.01-.041-.009-.041-.009-.041-.009-.043-.008-.041-.009-.041-.008-.041-.009-.041-.009-.041-.008-.043-.008-.041-.008-.04-.008-.041-.008-.041-.01-.041-.008-.041-.007-.041-.008-.041-.007-.041-.007-.041-.009-.041-.007-.041-.007-.04-.008-.041-.007-.043-.007-.04-.007-.041-.007-.04-.007-.041-.007-.043-.006-.041-.006-.041-.007-.041-.006-.041-.006-.041-.005-.04-.007-.041-.006-.041-.006-.041-.006-.043-.006-.041-.006-.041-.005-.041-.005-.041-.005-.042-.005-.041-.005-.041-.005-.04-.006-.041-.004-.041-.004-.042-.004-.041-.006-.041-.004-.041-.004-.042-.004-.041-.004-.042-.003-.041-.004-.041-.003-.041-.004-.04-.004-.041-.003-.041-.003-.041-.004-.041-.002-.041-.004-.041-.002-.041-.002-.041-.003-.041-.002-.041-.001-.043-.002-.02-.001h-.021l-.04-.002-.041-.002-.041-.001-.041-.001-.041-.001-.041-.001-.042-.001-.041-.001h-.041l-.042-.001h-.041l-.042-.001-.041-.001h-.04l-.041-.001H16.643l-.042.001h-.041l-.041.001-.041.001-.042.001h-.041l-.041.001-.041.001-.041.001-.041.001-.042.002-.04.001-.041.002-.041.002-.041.002-.041.002-.041.002-.041.002-.041.004-.042.002-.041.002-.041.004-.041.002-.04.003-.042.003-.041.003-.041.004-.041.004-.041.004-.041.003-.041.005-.041.004-.041.005-.041.004-.042.006-.041.004-.04.006-.041.006-.041.005-.041.005-.041.006-.041.005-.041.006-.041.007-.041.005-.041.007-.041.008-.042.007-.041.007-.041.007-.041.007-.041.008-.041.008-.042.008-.041.009-.041.008-.041.009-.041.009-.041.009-.042.009-.041.01-.04.01-.041.01-.041.01-.042.01-.041.01-.05.012-.041.011-.042.011-.041.012-.041.012-.041.012-.041.013-.04.012-.042.013-.041.014-.041.013-.041.014-.041.014-.042.015-.041.015-.041.015-.041.015-.041.016-.041.017-.042.016-.04.016-.041.017-.041.018-.041.017-.041.019-.041.018-.041.019-.041.019-.042.02-.041.021-.042.022-.041.021-.041.021c-.013.008-.026.016-.04.022l-.041.023-.041.023c-.014.006-.027.014-.041.023-.014.007-.027.016-.041.024l-.041.025-.041.025c-.014.008-.028.016-.041.026-.015.008-.028.017-.042.026l-.041.028c-.015.008-.028.018-.042.027l-.041.028-.04.03-.041.029-.041.032-.041.031-.041.033-.041.033-.088.075V4.347c0-.302.03-.595.088-.879.012-.061.026-.121.041-.181l.041-.154c.013-.045.026-.09.041-.134.013-.04.026-.08.041-.121l.041-.111.04-.103.041-.095.042-.09.041-.084.042-.081.041-.076.041-.073.041-.07.041-.068.041-.064.041-.063.041-.06.04-.057.041-.056.041-.055.042-.052.041-.05.042-.049.041-.048.041-.046.041-.045.041-.043c.014-.015.027-.03.041-.043l.041-.042.041-.042c.013-.013.028-.025.04-.038l.042-.039.041-.037c.014-.014.027-.025.041-.037l.041-.036c.014-.013.027-.022.041-.034.014-.012.027-.024.041-.034l.042-.036.041-.031.041-.031.041-.031c.014-.008.028-.02.041-.03l.042-.028.04-.028c.013-.008.027-.019.041-.027.014-.008.028-.018.041-.027l.041-.026.041-.026.042-.025.041-.024c.014-.006.027-.014.041-.021l.041-.024.042-.021.041-.022.041-.02.04-.02c.014-.008.027-.014.041-.02.014-.009.028-.015.042-.021l.041-.019.041-.018.041-.019.041-.017.041-.018.042-.016.041-.016c.014-.005.027-.011.041-.015l.041-.016.042-.015.04-.014.042-.014.041-.013.041-.013.041-.012.041-.011.041-.012c.014-.004.027-.008.041-.01.014-.004.027-.008.041-.01l.041-.011.041-.009.041-.009.04-.008.041-.008.042-.009.041-.007.041-.008.041-.007.041-.005.041-.006.041-.005.041-.004.041-.005.041-.003.041-.005.041-.001.041-.003.041-.002.041-.002.042-.001c.014-.001.027-.001.041-.004H22.268v21.627c0 .188-.013.371-.035.554-.012.089-.025.175-.041.26zm-11.765-.005c-.012.064-.026.131-.041.194-.012.054-.026.105-.041.16l-.041.14-.041.125-.041.112-.042.106-.041.098c-.013.029-.027.061-.041.089l-.041.086c-.013.027-.027.056-.041.081-.014.028-.026.053-.04.078l-.041.075-.041.068c-.014.02-.027.044-.041.066l-.042.064-.041.063-.041.062-.041.06-.041.056-.041.055-.041.053-.041.052-.041.05-.04.049-.041.047-.042.045-.041.044c-.014.016-.028.025-.042.043l-.041.041c-.014.015-.027.025-.041.041l-.041.038c-.014.016-.027.027-.041.04-.014.014-.027.025-.041.037l-.041.038-.041.035-.04.034-.041.034-.041.033c-.015.01-.028.019-.042.031l-.041.032c-.013.008-.027.017-.041.029l-.041.03c-.014.008-.027.017-.041.027l-.041.029-.042.026c-.014.007-.027.017-.041.028-.014.005-.027.013-.041.023-.013.007-.027.018-.041.026l-.04.024-.042.024c-.013.006-.027.014-.041.024-.014.004-.027.012-.041.02l-.041.023-.041.022c-.014.005-.027.013-.041.021-.014.009-.027.015-.042.022l-.041.021c-.014.006-.027.012-.041.022l-.041.019-.042.02-.041.018-.04.019-.041.019-.041.019-.042.015-.041.017-.042.015-.041.016-.041.017c-.014.004-.027.008-.041.014l-.041.012-.041.015-.042.012-.04.013c-.015.004-.028.006-.042.011l-.041.012c-.014.004-.028.008-.041.01-.014.004-.027.008-.041.01l-.041.012-.042.009c-.014.004-.027.008-.041.01-.014.002-.027.004-.041.008-.014.002-.028.007-.041.009l-.042.007-.041.009-.04.006c-.014.004-.028.006-.041.008l-.041.004-.041.006-.042.004-.041.006-.041.004-.041.004c-.014.002-.027.002-.041.005-.014 0-.027 0-.041.002l-.041.002-.041.002-.041.002h-.04c-.014.002-.028.002-.042.002H-.002v-9.119l.088.021.041.01.041.011.041.01.041.011.041.011.041.01.041.01.041.008.042.011.041.01.041.007.041.008.041.01.041.01.042.008.041.01.04.008.041.008.042.008.041.008.041.008.041.006.041.009.042.008.041.007.042.008.041.007.041.006.04.009.041.006.041.008.042.006.041.006.042.006.041.007.041.006.041.006.041.008.042.006.041.004.04.008.041.006.042.004.041.006.041.006.041.006.041.004.041.006.042.006.041.006.041.004.041.004.041.004.041.006.041.004.041.004.041.004.041.004.041.006.042.004.041.004.041.004.041.005.042.004.036.006.041.004.04.004.041.002.042.004.041.002.041.004.041.001.041.003.041.002.042.004.041.002.041.002.041.005.041.002.041.002.042.003.041.002.036.005.042.002.041.002.041.002.041.002h.041l.041.003h.041l.041.002h.041l.041.001h.124l.041.002H4.638l.041-.002h.041l.042-.002h.041l.04-.002h.041l.041-.002.041-.003.042-.002.041-.001h.041l.041-.002.041-.002.041-.002.036-.006.041-.002.042-.005.041-.002.04-.002.042-.002.041-.004.042-.004.041-.002.041-.005.041-.004.041-.004.041-.006.041-.004.041-.004.041-.006.04-.006.042-.002.041-.007.041-.002.041-.007.041-.007.042.021.041-.007.041-.006c.014-.002.028-.004.041-.008l.041-.006c.014-.004.028-.006.042-.008l.04-.006.041-.009.041-.008.041-.008c.014-.005.027-.007.041-.011l.041-.008.041-.006.041-.01.041-.008c.015-.005.028-.009.042-.011l.041-.011.041-.011.041-.012c.014-.002.026-.007.04-.011l.041-.012.042-.012.041-.01.041-.014.041-.014.042-.013.041-.012.041-.013.041-.014.041-.012c.015-.006.028-.01.042-.017l.04-.014.042-.016.041-.017c.014-.004.027-.01.041-.016.014-.007.027-.012.041-.017l.041-.019.042-.02c.014-.006.028-.013.042-.017l.041-.021.042-.021.041-.02c.014-.006.028-.013.041-.022l.041-.018.04-.021.042-.021c.014-.006.027-.014.041-.022l.041-.02c.014-.007.028-.016.041-.024.015-.007.028-.015.042-.024.014-.005.027-.014.041-.024.014-.006.027-.016.041-.024.014-.006.028-.015.041-.025.014-.008.027-.018.041-.028.014-.007.028-.015.041-.026.015-.008.028-.018.042-.029.014-.008.027-.018.041-.029.013-.009.027-.018.04-.031.014-.01.028-.018.041-.031.015-.011.028-.021.041-.033l.042-.033.041-.036.041-.039c.014-.013.028-.024.041-.038l.041-.042c.014-.014.028-.027.041-.042.015-.014.028-.027.042-.043l.041-.046.041-.05.041-.05.04-.052.041-.058.041-.062.041-.062.041-.067c.014-.021.027-.046.041-.069l.041-.076c.015-.027.029-.058.042-.084.014-.028.028-.061.041-.091l.042-.101.041-.111c.015-.043.027-.085.041-.129.015-.049.028-.101.04-.155.016-.063.029-.13.041-.194.017-.098.031-.197.041-.298.014-.142.02-.285.02-.431V8.863H5.975v5.02c0 .081-.003.158-.009.233-.009.095-.023.191-.042.282-.011.058-.025.111-.04.167-.013.044-.026.085-.041.127-.013.038-.026.071-.041.124-.013.03-.027.065-.041.092-.013.025-.027.056-.041.081-.013.024-.027.049-.041.071l-.041.066c-.013.022-.027.041-.041.06l-.041.058c-.014.02-.028.034-.042.053l-.041.048-.042.044-.041.044c-.014.014-.027.025-.04.04l-.042.037-.041.034-.041.032c-.014.009-.027.02-.041.031l-.041.029c-.014.007-.027.018-.041.028-.014.006-.027.017-.041.025l-.041.023c-.015.008-.028.016-.042.022l-.041.023c-.013.007-.027.013-.041.022l-.04.02-.041.02-.041.02-.042.019-.041.016-.041.017c-.014.004-.027.008-.041.014l-.041.014-.042.014-.041.012c-.014.004-.027.006-.041.012l-.041.011-.041.01-.04.008-.042.008c-.014.002-.027.006-.041.009l-.041.008-.041.006c-.014.004-.027.006-.041.006l-.041.006-.041.004-.041.004c-.014.002-.028.002-.041.002l-.042.004-.041.002-.042.002-.04.001-.041.001h-.123l-.041-.001h-.041l-.042-.001-.041-.001-.041-.002-.042-.003-.041-.002h-.042l-.04-.004-.041-.002-.041-.004-.042-.002-.041-.004-.041-.004-.041-.006-.041-.004-.041-.004-.042-.006-.041-.007-.041-.006-.04-.004-.041-.006-.042-.007-.041-.007-.041-.009-.041-.006-.042-.008-.041-.006-.041-.01-.041-.008-.041-.01-.041-.008-.041-.008-.041-.01-.041-.009-.041-.01-.041-.01-.042-.011-.041-.011-.041-.013-.041-.01-.041-.011-.041-.01-.042-.012-.041-.012-.04-.013-.041-.011-.042-.014-.041-.012-.041-.013-.041-.012-.041-.014-.042-.015-.041-.016-.042-.012-.041-.014-.041-.016-.04-.015-.041-.015-.041-.017-.042-.014-.041-.016-.042-.017-.041-.015-.041-.018-.041-.016-.041-.017-.042-.017-.041-.018-.04-.018-.041-.018-.042-.018-.041-.017-.041-.019-.041-.02-.041-.018-.041-.02-.042-.017-.041-.021-.041-.018-.041-.021-.041-.02-.041-.019-.041-.021-.041-.021-.041-.02c-.029-.016-.058-.028-.088-.044V4.35c0-.303.03-.596.088-.881.012-.062.026-.12.041-.18.012-.052.027-.103.041-.154l.041-.136.041-.122c.014-.036.026-.075.041-.109.013-.037.027-.068.041-.106.014-.028.027-.061.041-.093l.041-.088.042-.086.041-.08.041-.076c.013-.025.027-.048.041-.072l.041-.072.041-.067c.014-.02.027-.043.042-.063l.041-.063.04-.059c.014-.019.028-.037.041-.058.015-.018.028-.035.042-.055.013-.019.027-.037.041-.052.013-.02.027-.036.041-.054.014-.019.027-.033.041-.049.014-.018.027-.036.041-.049l.042-.049c.014-.014.027-.03.041-.047.014-.014.028-.028.042-.045l.041-.042.041-.042.04-.043c.014-.016.027-.026.041-.042.014-.014.028-.024.041-.037.015-.013.028-.025.042-.04.014-.011.028-.024.041-.037.015-.011.028-.024.042-.034.014-.014.027-.024.041-.037l.041-.035c.014-.013.027-.021.041-.035l.041-.032.042-.031.041-.031.04-.033.041-.027c.015-.013.028-.021.042-.031l.041-.03C1.91.74 1.923.727 1.937.72c.014-.007.028-.018.041-.026.014-.008.027-.018.041-.027.014-.006.027-.015.041-.023L2.102.62c.014-.008.027-.019.041-.027l.041-.02.041-.025.041-.021.041-.022c.013-.01.027-.015.041-.023l.041-.021c.014-.008.028-.014.041-.02L2.471.42c.014-.007.027-.012.041-.02.014-.005.028-.011.042-.019.014-.005.028-.013.041-.017l.041-.017.041-.018.042-.017.032-.015.041-.016.04-.013c.014-.009.027-.011.041-.017l.042-.013.041-.014.041-.014c.014-.006.028-.008.041-.013l.041-.013.041-.012.042-.01.041-.012.041-.01c.014-.002.028-.008.041-.009l.041-.012.041-.008c.014-.001.028-.005.042-.007.014-.006.028-.006.041-.008.014-.004.027-.006.041-.008.014-.004.028-.009.042-.009l.041-.008c.014-.001.027-.005.041-.005.013-.001.028-.005.041-.005.014-.004.027-.005.041-.008L3.738.05l.041-.006c.014-.001.028-.004.04-.004l.042-.003.041-.006.042-.001c.014-.003.027-.003.041-.003l.041-.002.041-.002.041-.001c.014-.001.027-.004.041-.004H10.503v21.621c0 .187-.012.371-.034.554-.012.088-.026.175-.042.261z"/>
    </g>
</svg>
