<svg xmlns="http://www.w3.org/2000/svg" width="48" height="29">
    <defs>
        <filter id="ri3get4naa">
            <feFlood flood-color="#FFF" flood-opacity="1" result="floodOut"/>
            <feComposite in="floodOut" in2="SourceGraphic" operator="atop" result="compOut"/>
            <feBlend in="compOut" in2="SourceGraphic"/>
        </filter>
    </defs>
    <g filter="url(#ri3get4naa)">
        <path fill-rule="evenodd" d="M33.64 28.999c-3.712.001-7.097-1.419-9.646-3.749.012-.012.025-.021.037-.031l-.001-.002h.003c.522-.48 1.011-.999 1.459-1.553h-2.968c.455.562.937 1.1 1.469 1.584-2.55 2.328-5.928 3.746-9.633 3.746-7.932 0-14.37-6.493-14.37-14.495C-.01 6.529 6.377.055 14.267.003h.093c3.705 0 7.084 1.418 9.634 3.745C26.542 1.42 29.923.001 33.634 0c7.933 0 14.369 6.488 14.371 14.493v.007c.002 8.004-6.428 14.497-14.365 14.499zm-12.188-6.826h5.099c.309-.499.588-1.015.837-1.552h-6.784c.248.539.539 1.052.848 1.552zm-9.301-11.18l-1.889 4.324-.122-4.324H7.48l-1.321 6.982h1.544l1.015-5.334.285 5.334h1.542l2.335-5.37-1.015 5.37h1.705l1.343-6.982h-2.762zm5.339 1.176c-.629 0-1.177.081-2.03.299l-.223 1.279.142-.037.244-.062c.364-.098.913-.157 1.4-.157.792 0 1.097.14 1.097.515 0 .104-.021.182-.062.369-.263-.027-.507-.044-.689-.044-1.888 0-2.985.808-2.985 2.19 0 .916.63 1.549 1.544 1.549.771 0 1.361-.217 1.786-.685l-.04.587h1.421l.019-.154.021-.194.041-.288.06-.361.366-2.017c.102-.631.122-.842.122-1.124 0-1.088-.772-1.665-2.234-1.665zm5.443 5.916c.589 0 1.157-.075 1.726-.229l.284-1.422c-.609.25-1.157.36-1.767.36-.974 0-1.482-.335-1.482-.992 0-.054 0-.093.021-.18h3.369c.144-.576.205-.983.205-1.404 0-1.259-.894-2.063-2.294-2.063-1.706.002-2.966 1.437-2.966 3.384 0 1.673.996 2.546 2.904 2.546zm2.485-12.839h-2.731c-.368.502-.713 1.033-1.025 1.552h4.871c-.337-.542-.711-1.061-1.115-1.552zm1.942 3.075h-6.548c-.421.8-.698 1.403-.777 1.554h7.945c-.179-.532-.385-1.051-.62-1.554zm1.036 3.85c-1.909 0-2.58.873-2.58 1.922 0 .716.407 1.212 1.32 1.583.69.283.792.367.792.627 0 .354-.304.512-.974.512-.527 0-.996-.068-1.544-.224l-.244 1.31.081.016.305.056c.103.021.264.037.468.052.406.03.711.047.933.047 1.828 0 2.661-.599 2.661-1.895 0-.779-.347-1.236-1.219-1.581-.711-.288-.792-.352-.792-.618 0-.305.284-.461.833-.461.346 0 .792.031 1.239.083l.243-1.317c-.445-.062-1.115-.112-1.522-.112zm4.304-1.178h-1.684l-.793 4.336-.08.449-.102.559c-.021.18-.041.35-.041.51 0 .805.467 1.248 1.341 1.248.386 0 .751-.057 1.218-.186l.223-1.26c-.122.037-.263.055-.445.055-.408-.002-.592-.127-.592-.422 0-.053 0-.131.021-.234l.446-2.369h.874l.244-1.382h-.873l.243-1.304zm4.627 1.292c-.082-.02-.145-.031-.145-.034-.06-.008-.122-.015-.183-.015-.549 0-.954.253-1.482.924l.162-.862h-1.543l-1.036 5.68h1.706c.609-3.473.872-4.083 1.684-4.083.068 0 .128.005.209.015l.204.042.606-1.605c-.142-.057-.162-.057-.182-.062zm2.824-.153c-2.031 0-3.35 1.365-3.35 3.376 0 1.441.769 2.619 2.702 2.619 1.745.002 3.045-.837 3.31-2.726.04-.33.04-.354.04-.707 0-1.44-.934-2.562-2.702-2.562zm2.844 4.957c-.244 0-.447.199-.447.441 0 .246.203.445.447.445s.447-.198.447-.445c0-.242-.203-.441-.447-.441zm-.345.441c0-.185.163-.336.345-.336.183 0 .325.152.325.336 0 .188-.142.34-.325.34-.182 0-.345-.15-.345-.34zm.507.198l-.062-.17c.041-.018.062-.06.062-.102 0-.04-.021-.079-.041-.098-.041-.021-.081-.023-.103-.023h-.163v.393h.082v-.153h.061l.062.153h.102zm-.224-.322h.042c.02 0 .061 0 .06.009.021.008.021.024.021.039 0 .017 0 .036-.021.045-.02.008-.041.008-.041.008h-.061v-.101zm-3.248-.659c-.61.012-.975-.506-.975-1.278 0-.912.527-1.947 1.401-1.947.691-.002.934.56.934 1.152 0 .247-.021.474-.061.681-.142.883-.933 1.392-1.299 1.392zm-16.711-3.29c.508 0 .792.268.792.729v.294l-1.889-.004c.163-.658.549-1.019 1.097-1.019zm-6.336 3.41c-.385 0-.609-.226-.609-.579 0-.574.488-.865 1.441-.864.122 0 .203.002.386.021-.04.84-.527 1.422-1.218 1.422zm29.696 5.273c.074-.041.149-.062.228-.062.079 0 .154.021.227.062.077.041.135.098.176.174.041.073.061.151.061.232 0 .08-.021.159-.061.232-.042.074-.099.134-.172.175-.073.041-.151.062-.229.062-.081 0-.158-.021-.232-.062-.072-.041-.13-.101-.172-.175-.041-.073-.062-.151-.062-.232 0-.081.021-.159.062-.232.04-.076.101-.133.174-.174zm.082.58h.082v-.154h.06l.062.154h.101l-.061-.17c.041-.018.061-.059.061-.102 0-.039-.02-.078-.041-.098-.04-.021-.081-.022-.101-.022h-.163v.392zm.205-.273c0 .018 0 .037-.021.046-.02.008-.041.008-.041.008h-.061V22.4h.04c.021 0 .062 0 .062.008.021.008.021.024.021.039z"/>
    </g>
</svg>
