<svg xmlns="http://www.w3.org/2000/svg" width="42" height="28">
    <defs>
        <filter id="pvu4twqa1a">
            <feFlood flood-color="#FFF" flood-opacity="1" result="floodOut"/>
            <feComposite in="floodOut" in2="SourceGraphic" operator="atop" result="compOut"/>
            <feBlend in="compOut" in2="SourceGraphic"/>
        </filter>
    </defs>
    <g filter="url(#pvu4twqa1a)">
        <path fill-rule="evenodd" d="M28.908.98c-2.87 0-5.64.933-7.908 2.644C18.732 1.913 15.962.98 13.092.98 5.873.98 0 6.82 0 14c0 7.179 5.873 13.02 13.092 13.02 2.87 0 5.64-.933 7.908-2.645 2.268 1.712 5.038 2.645 7.908 2.645C36.127 27.02 42 21.179 42 14 42 6.82 36.127.98 28.908.98zM21 6.937c.405.449.772.933 1.096 1.443h-2.192c.323-.51.69-.994 1.096-1.443zm-2.236 3.891h4.472c.201.634.34 1.286.417 1.948h-5.306c.077-.662.216-1.313.417-1.948zm-.417 4.396h5.306c-.077.662-.216 1.313-.417 1.948h-4.472c-.201-.635-.34-1.286-.417-1.948zM21 21.063c-.406-.449-.773-.933-1.096-1.444h2.192c-.324.511-.69.995-1.096 1.444zm7.908 3.51c-2.182 0-4.292-.664-6.064-1.889 1.015-1.128 1.834-2.432 2.399-3.832.625-1.544.941-3.177.941-4.852 0-1.676-.316-3.308-.941-4.852-.565-1.4-1.384-2.704-2.399-3.833 1.772-1.225 3.882-1.888 6.064-1.888C34.77 3.427 39.539 8.17 39.539 14S34.77 24.573 28.908 24.573z"/>
    </g>
</svg>
