<svg xmlns="http://www.w3.org/2000/svg" width="50" height="14">
    <defs>
        <filter id="4f3aakk7da">
            <feFlood flood-color="#FFF" flood-opacity="1" result="floodOut"/>
            <feComposite in="floodOut" in2="SourceGraphic" operator="atop" result="compOut"/>
            <feBlend in="compOut" in2="SourceGraphic"/>
        </filter>
    </defs>
    <g filter="url(#4f3aakk7da)">
        <path fill-rule="evenodd" d="M49.785 1.776V.995L49.77.829l-.028-.132-.079-.079-.146-.027-.186.048-.189.123.004.067.004.072v.874h-.221v-.78l-.011-.169-.032-.131-.075-.079-.15-.028-.185.047-.185.119v1.02h-.22V.408h.221V.56l.209-.139.221-.05.23.056.142.162.244-.169.239-.05.325.138.105.381v.887h-.222zm-2.248.027l-.31-.114-.105-.36V.602h-.152V.408h.152V.019h.225v.389h.455v.194h-.455v.625l.002.168.033.113.071.071.14.023.114-.017.085-.026h.012v.205l-.138.028-.129.011zm-3.974 8.239l-.065.102c-.106.239-.339.433-.587.433h-1.266l-.021-.029c-.241-.038-.398-.236-.342-.499l-.002-.006.056-.246 1.704-7.991.061-.278.068-.108c.11-.235.335-.427.584-.427h1.219c.293-.004.471.234.409.528l.004.001-1.822 8.52zm-2.589-4.426l-.995 4.424c-.056.272-.31.497-.579.53l-.021.007H38.117l-.002-.004c-.262-.025-.423-.252-.362-.526l-.002-.004.005-.005.047-.226-.009-.012-.51.354-.563.319-.657.231c-.203.054-.488.079-.853.083-.581 0-1.062-.17-1.432-.508-.37-.344-.557-.791-.557-1.336 0-.57.128-1.058.391-1.462.265-.403.655-.719 1.171-.955.484-.229 1.067-.395 1.727-.49.67-.101 1.229-.175 2.009-.223l.194-.128.021-.197c0-.302-.135-.515-.41-.637-.277-.121-.693-.181-1.235-.181-.37-.002-.839.073-1.278.176-.458.11-.58.179-.807.248-.115.035-.36.056-.267-.395l.166-.706s.081-.535.597-.651c.252-.055.292-.068.701-.13.55-.091 1.097-.135 1.645-.135 1.105 0 1.915.151 2.431.449.519.298.778.761.778 1.387l-.029.34-.053.363zm-2.711 1.533c-.079.002-.691.076-1.001.116-.351.053-.652.122-.896.208-.249.1-.451.237-.582.404-.13.176-.195.401-.195.687l.266.525c.172.102.428.153.774.153.217 0 .457-.054.709-.159l.53-.283.221-.291c.081-.342.257-1.092.271-1.189l-.097-.171zm-9.56.279h-.39c-.294-.002-.587.242-.654.532l-.461 2.088c-.068.294-.365.533-.654.531l-1.363.002c-.289 0-.48-.241-.41-.532l1.914-8.597c.068-.291.353-.528.649-.533l2.845-.002c.612.001 1.15.046 1.601.129.459.086.852.235 1.183.447.323.215.579.49.749.831.172.334.257.759.262 1.261 0 1.152-.465 2.08-1.384 2.789-.93.7-2.221 1.054-3.887 1.054zm2.289-4.453c-.267-.18-.66-.269-1.183-.272l-.441.003c-.295-.003-.59.242-.65.533l-.413 1.821c-.065.293.124.538.417.535h.338c.734 0 1.307-.155 1.717-.46.409-.313.614-.752.611-1.323-.003-.375-.129-.657-.396-.837zM19.35 13.438c-.174.295-.56.533-.853.533l-1.41.002c-.292 0-.388-.24-.21-.534l1.205-2.166s.098-.126.011-.831c-.185-1.28-1.111-6.715-1.111-6.715-.066-.294.114-.536.408-.536l1.219-.002c.373 0 .674.254.741.55l.607 3.771.226.003c.189-.347 2.138-3.798 2.138-3.798.186-.291.563-.535.856-.535 0 0 1.309.004 1.631 0 .485-.011-.036.797-.036.796l-5.422 9.462zm-3.091-7.827l-.992 4.431c-.06.267-.315.493-.586.525l-.018.008h-1.264l-.005-.006c-.258-.026-.419-.251-.363-.525v-.002l.003-.01.051-.224-.007-.011-.513.35-.558.319-.659.234c-.203.05-.487.08-.855.082-.581 0-1.066-.166-1.434-.505-.366-.346-.554-.793-.554-1.334 0-.574.13-1.064.389-1.468.269-.402.654-.718 1.172-.953.483-.228 1.064-.395 1.726-.49.677-.101 1.235-.175 2.007-.225l.196-.125.024-.198c0-.305-.137-.516-.411-.638-.277-.121-.693-.181-1.238-.181-.368-.004-.833.073-1.274.177-.462.106-.588.177-.814.247-.105.038-.357.055-.263-.396l.167-.706s.081-.533.599-.65c.25-.056.29-.068.697-.133.552-.087 1.099-.132 1.647-.132 1.108 0 1.919.15 2.432.448.514.298.777.763.773 1.391l-.024.338-.051.362zm-2.71 1.532c-.08.002-.695.074-1.006.114-.349.05-.65.123-.897.208l-.577.405c-.136.174-.199.4-.199.686l.262.526c.178.103.441.153.776.153.221 0 .459-.053.711-.159l.535-.285.213-.289c.083-.339.257-1.092.276-1.189l-.094-.17zm-9.557.254h-.389c-.299 0-.59.243-.653.533l-.466 2.086c-.066.298-.358.534-.654.534H.47c-.296 0-.481-.243-.412-.534L1.97 1.424c.07-.294.359-.532.654-.536L5.466.886c.616.006 1.147.045 1.607.131.452.088.847.236 1.182.448.321.209.58.489.744.827.18.338.26.761.261 1.265 0 1.152-.459 2.081-1.389 2.785-.926.702-2.215 1.053-3.879 1.055zm2.292-4.455c-.266-.179-.663-.272-1.184-.272l-.446.002c-.292-.002-.59.241-.648.533L3.597 5.03c-.065.294.117.535.413.535h.333c.737 0 1.309-.155 1.721-.466.409-.311.62-.75.612-1.32.002-.375-.13-.658-.392-.837z"/>
    </g>
</svg>
