<svg xmlns="http://www.w3.org/2000/svg" width="48" height="15">
    <defs>
        <filter id="t5r5nwc7ka">
            <feFlood flood-color="#FFF" flood-opacity="1" result="floodOut"/>
            <feComposite in="floodOut" in2="SourceGraphic" operator="atop" result="compOut"/>
            <feBlend in="compOut" in2="SourceGraphic"/>
        </filter>
    </defs>
    <g filter="url(#t5r5nwc7ka)">
        <path fill-rule="evenodd" d="M44.377 14.772s-.359-1.666-.475-2.172l-4.996-.006c-.151.391-.82 2.178-.82 2.178H33.99l5.792-13.289C40.193.538 40.89.279 41.826.279h3.014l3.156 14.493h-3.619zm-2.011-9.333l-.263-1.25c-.202.546-.541 1.424-.52 1.384 0 0-1.233 3.22-1.554 4.053h3.241l-.904-4.187zm-8.417-1.841c-.719-.293-1.644-.575-2.92-.555-1.527 0-2.235.645-2.235 1.247-.008.679.826 1.127 2.191 1.799 2.254 1.032 3.295 2.29 3.278 3.937-.028 3.012-2.693 4.955-6.794 4.955-1.749-.018-3.433-.366-4.346-.772l.549-3.246.502.232c1.281.541 2.111.759 3.673.759 1.121 0 2.321-.445 2.333-1.415.007-.636-.502-1.088-2.023-1.8-1.48-.694-3.441-1.857-3.416-3.939.021-2.819 2.738-4.786 6.593-4.786 1.511 0 2.722.315 3.495.609l-.528 3.143-.352-.168zM16.781 14.764L19.22.263h3.903l-2.441 14.501h-3.901zm-9.41-.007L3.878 2.664c2.511 1.629 4.65 4.212 5.404 6.011l.407 1.494L13.51.279l4.133-.002-6.144 14.473-4.128.007zM.003.428l.05-.289h6.048c.816.032 1.473.295 1.7 1.178l1.315 6.406C7.824 4.372 4.71 1.584.003.428z"/>
    </g>
</svg>
