<svg xmlns="http://www.w3.org/2000/svg" width="20" height="26">
    <defs>
        <filter id="bhaomwclaa">
            <feFlood flood-color="#FFF" flood-opacity="1" result="floodOut"/>
            <feComposite in="floodOut" in2="SourceGraphic" operator="atop" result="compOut"/>
            <feBlend in="compOut" in2="SourceGraphic"/>
        </filter>
    </defs>
    <g filter="url(#bhaomwclaa)">
        <path fill-rule="evenodd" d="M10.334.655C3.598.655.016 4.971.016 9.676c0 2.183 1.22 4.904 3.172 5.767.296.134.458.077.524-.198.058-.209.315-1.215.439-1.689.039-.152.019-.285-.104-.427-.648-.75-1.163-2.115-1.163-3.396 0-3.282 2.61-6.468 7.051-6.468 3.84 0 6.527 2.494 6.527 6.061 0 4.032-2.134 6.82-4.907 6.82-1.534 0-2.677-1.204-2.315-2.693.438-1.774 1.297-3.681 1.297-4.961 0-1.147-.648-2.096-1.973-2.096-1.562 0-2.829 1.546-2.829 3.623 0 1.319.467 2.21.467 2.21l-1.833 7.406c-.485 1.974.066 5.17.114 5.445.029.152.2.199.295.075.152-.2 2.02-2.864 2.544-4.79.19-.702.972-3.548.972-3.548.515.93 2 1.708 3.582 1.708 4.707 0 8.108-4.136 8.108-9.268-.017-4.92-4.229-8.602-9.65-8.602z"/>
    </g>
</svg>
